<svg width="1512" height="860" viewBox="0 0 1512 860" fill="none" xmlns="http://www.w3.org/2000/svg">
<path d="M861.402 937.086C876.724 967.318 902.326 992.131 936.142 1004.91C970.082 1017.75 1008.68 1017.13 1047.96 1003.06C1067.95 995.892 1084.95 985.308 1098.15 970.542C1111.34 955.796 1118.43 939.451 1122.45 924.319C1126.3 909.815 1127.59 895.281 1128.43 883.834C1129.36 871.093 1129.75 862.092 1131.06 852.416C1133.38 835.248 1137.74 823.947 1148.49 813.903C1160.71 802.479 1186.55 787.776 1242.87 777.705C1256.23 775.316 1269.8 778.058 1287.37 786.761C1307.53 796.748 1322.92 808.748 1348.72 824.84C1370.88 838.666 1400.86 855.273 1436.11 857.058C1474.53 859.004 1510.23 843.288 1543.27 811.445C1567.7 787.902 1585.21 762.53 1593.17 734.63C1601.41 705.791 1598.21 678.535 1588.45 654.371C1570.72 610.469 1529.84 574.833 1499.26 548.59C1463.64 518.026 1437.47 496.58 1424.18 475.349C1418.5 466.276 1417.78 460.991 1417.95 457.989C1418.1 455.265 1419.28 448.45 1429.35 436.805C1441.34 422.94 1449.12 418.756 1452.29 417.602C1454.07 416.952 1454.79 416.899 1456.97 417.746C1460.53 419.127 1466.71 422.902 1475.71 431.849C1484.51 440.611 1493.91 452.176 1504.47 466.397C1523.77 492.372 1549.34 531.213 1575.14 559.453C1600.83 587.579 1639.44 620.15 1691.24 617.02C1832.42 608.487 1925.02 497.918 1941.76 397.22C1950.2 346.482 1941.77 286.565 1900.54 241.01C1858.5 194.553 1791.28 172.754 1702.7 180.576C1673.63 183.143 1658.99 175.217 1652.08 168.769C1644.71 161.893 1640.51 151.549 1641.06 139.477C1641.61 127.298 1646.99 115.404 1656.37 107.186C1665.07 99.5626 1680.17 92.5338 1705.39 95.1846L1715.28 1.07985C1666.62 -4.03456 1624.55 9.24879 1594 36.0244C1564.13 62.2054 1548.18 98.7984 1546.53 135.201C1544.88 171.711 1557.62 210.048 1587.53 237.956C1617.9 266.293 1660.9 279.258 1711.02 274.832C1780.84 268.667 1814.52 286.972 1830.38 304.502C1847.06 322.934 1853.55 350.888 1848.42 381.696C1838.05 444.089 1777.6 517.006 1685.53 522.57C1679.01 522.964 1666.69 519.374 1645 495.636C1623.42 472.012 1605.18 443.282 1580.43 409.963C1568.96 394.536 1556.27 378.522 1542.45 364.771C1528.81 351.206 1511.83 337.534 1491.21 329.533C1469.21 320.996 1444.74 319.624 1419.84 328.716C1396.32 337.303 1375.93 353.923 1357.77 374.918C1337.7 398.133 1325.07 424.123 1323.48 452.735C1321.9 481.068 1331.51 505.65 1343.98 525.565C1366.99 562.309 1408.41 595.318 1437.63 620.397C1471.89 649.797 1493.11 670.991 1500.72 689.815C1503.63 697.013 1503.91 702.596 1502.18 708.655C1500.19 715.654 1494.29 727.245 1477.61 743.314C1458.56 761.673 1447.17 762.875 1440.9 762.557C1431.46 762.079 1419.14 757.244 1398.79 744.555C1382.08 734.131 1354.75 714.541 1329.37 701.971C1301.41 688.117 1266.62 677.336 1226.22 684.562C1161.1 696.206 1114.9 715.769 1083.87 744.783C1051.36 775.176 1041.25 810.486 1037.29 839.72C1035.46 853.245 1034.75 867.393 1034.06 876.953C1033.27 887.806 1032.4 894.724 1031 900.024C1029.76 904.696 1028.48 906.509 1027.61 907.477C1026.76 908.425 1024.04 911.113 1016.04 913.979C994.687 921.631 979.496 920.147 969.602 916.407C959.584 912.619 951.303 905.158 945.805 894.31C934.805 872.605 934.808 834.729 967.108 798.839C991.594 771.632 1011.78 746.227 1026.07 721.968C1040.35 697.716 1050.49 671.689 1050.93 643.912C1051.87 584.738 1009.67 543.852 962.001 510.646C945.048 498.836 926.407 491.097 906.178 489.967C885.795 488.828 868.392 494.656 854.517 502.278C841.265 509.557 830.251 519.024 821.956 526.663C810.634 537.09 808.713 539.602 799.908 547.48C793.452 553.256 789.287 556.129 786.434 557.541C785.196 558.154 784.552 558.309 784.392 558.343C784.296 558.363 784.286 558.368 784.152 558.355C783.406 558.284 769.757 556.155 740.786 520.875C736.559 515.728 736.238 512.813 736.184 511.157C736.099 508.548 736.8 503.343 741.213 494.481C750.883 475.066 770.09 453.302 795.777 424.899C818.535 399.734 848.031 367.684 864.261 334.316C872.822 316.715 879.422 295.516 877.901 272.101C876.32 247.737 866.242 225.591 849.209 206.582C827.815 182.706 804.935 163.429 777.464 149.964C749.905 136.457 720.53 130.171 688.009 128.404C669.152 127.379 650.23 129.152 632.865 136.667C614.372 144.672 601.324 157.593 592.564 172.424C584.524 186.036 580.519 200.558 577.952 212.015C575.581 222.6 573.214 236.963 571.421 246.251C567.246 267.882 561.9 287.355 549.665 305.995C537.716 324.202 516.953 344.924 476.896 364.166C466.694 369.066 457.015 369.079 438.096 357.793C428.08 351.818 417.429 343.709 404.858 333.52C393.174 324.05 378.733 311.841 364.695 301.389C337.273 280.973 297.583 256.191 248.973 261.639C199.413 267.195 156.931 301.914 117.553 358.44C100.427 383.026 94.2123 410.401 99.5754 438.077C104.522 463.602 118.461 484.922 132.664 501.691C160.011 533.979 203.037 565.34 234.131 590.12C250.972 603.541 265.49 615.773 276.964 627.489C288.701 639.474 294.765 648.46 297.352 654.732C299.335 659.541 298.874 661.368 298.105 663.313C296.699 666.875 291.465 675.748 273.577 688.717C243.864 710.261 229.655 710.382 225.445 709.783C221.675 709.247 214.994 706.632 204.097 692.477C192.535 677.458 183.453 659.541 169.72 635.721C158.151 615.655 141.224 587.548 116.097 570.044C54.1426 526.886 -10.7892 533.141 -66.1973 558.071C-119.173 581.907 -167.819 624.34 -207.342 662.208L-141.88 730.533C-103.065 693.345 -64.3888 661.019 -27.3709 644.363C7.21417 628.801 34.9462 628.832 62.0115 647.686C67.5167 651.521 75.2527 661.316 87.7447 682.983C98.0731 700.897 112.451 728.547 129.116 750.195C146.444 772.707 172.755 797.861 212.11 803.463C251.025 809.002 290.075 793.631 329.118 765.324C355.106 746.483 375.662 724.54 386.116 698.066C397.208 669.974 394.68 642.541 384.828 618.654C375.58 596.232 360.041 577.085 344.568 561.285C328.83 545.215 310.528 530.009 293.102 516.121C255.662 486.284 224.361 463.55 204.867 440.535C195.651 429.654 193.041 423.02 192.471 420.074C192.317 419.279 191.616 417.664 195.195 412.526C228.707 364.419 250.261 356.71 259.513 355.673C269.716 354.53 283.615 358.99 308.188 377.286C320.147 386.19 331.305 395.704 345.276 407.028C358.359 417.633 373.419 429.391 389.621 439.056C423.139 459.051 467.932 473.444 517.867 449.458C571.196 423.841 606.107 392.448 628.773 357.914C651.153 323.814 659.362 289.918 664.329 264.183C667.107 249.789 668.211 241.968 670.287 232.7C671.352 227.947 672.269 224.923 672.945 223.056C674.902 222.817 678.083 222.627 682.876 222.888C706.089 224.149 722.356 228.333 735.818 234.931C749.367 241.572 762.886 252.035 778.739 269.728C783.301 274.819 783.423 277.395 783.478 278.233C783.594 280.022 783.266 284.508 779.17 292.929C770.085 311.608 751.342 332.963 725.597 361.431C702.78 386.66 673.219 418.757 656.514 452.297C647.741 469.913 640.854 490.96 641.612 514.235C642.4 538.463 651.352 561.065 667.661 580.925C700.837 621.325 735.523 648.79 775.215 652.555C816.684 656.488 846.328 632.916 863.002 617.997C869.479 612.203 882.345 599.685 886.057 596.266C892.795 590.061 897.061 586.866 900.073 585.212C900.596 584.925 900.999 584.734 901.292 584.604C902.334 584.961 904.495 585.905 907.915 588.287C952.903 619.627 956.437 635.111 956.322 642.416C956.235 647.879 954.154 657.618 944.537 673.946C934.924 690.267 919.53 710.256 896.774 735.541C841.362 797.112 830.761 876.628 861.402 937.086Z" fill="#0491DD"/>
</svg>
