<svg width="1512" height="795" viewBox="0 0 1512 795" fill="none" xmlns="http://www.w3.org/2000/svg">
<path d="M-140.119 672.528C-100.871 627.263 -52.1423 576.099 3.18455 544.767C61.0522 511.996 131.188 498.617 203.072 539.392C232.226 555.929 253.514 584.851 268.151 605.551C285.525 630.123 297.235 648.732 311.354 663.932C324.66 678.259 332.207 680.433 336.37 680.637C341.019 680.864 356.492 679.295 386.698 652.813C404.883 636.87 409.69 626.671 410.863 622.646C411.504 620.448 411.822 618.411 409.175 613.371C405.721 606.796 398.205 597.616 384.201 585.74C370.512 574.131 353.452 562.267 333.742 549.342C297.349 525.478 247.288 495.647 214.22 463.222C197.044 446.381 179.699 424.554 171.728 397.235C163.085 367.614 167.091 337.15 183.271 308.624C220.474 243.038 263.266 200.906 316.718 189.842C369.146 178.991 414.907 201.988 446.857 221.468C463.213 231.44 480.186 243.286 493.877 252.426C508.607 262.261 521.035 270.022 532.556 275.522C554.315 285.91 564.863 284.917 575.486 278.545C617.198 253.526 637.732 228.843 648.915 207.792C660.364 186.24 664.223 164.477 666.588 140.48C667.603 130.176 668.732 114.283 670.246 102.507C671.885 89.761 674.782 73.5293 682.169 57.8823C690.218 40.833 703.132 25.4313 722.478 14.8383C740.643 4.89242 761.087 1.04854 781.742 0.259237C817.364 -1.10197 850.015 2.7795 881.415 14.7153C912.716 26.6132 939.601 45.3108 965.331 69.1704C985.815 88.1653 999.037 111.284 1003.22 137.677C1007.25 163.042 1002.2 186.813 994.644 206.862C980.329 244.868 951.422 282.781 929.162 312.507C904.038 346.059 885.304 371.719 876.728 393.857C872.813 403.961 872.575 409.706 872.932 412.54C873.158 414.34 873.803 417.485 878.929 422.666C914.07 458.189 929.161 459.13 929.98 459.131C930.128 459.132 930.139 459.126 930.241 459.094C930.413 459.041 931.098 458.807 932.386 458.014C935.353 456.187 939.6 452.634 946.053 445.686C954.853 436.21 956.693 433.278 967.978 420.77C976.247 411.606 987.294 400.176 1001 390.903C1015.35 381.194 1033.73 373.083 1056.06 372.264C1078.22 371.451 1099.32 378.002 1118.99 389.159C1174.3 420.531 1224.42 460.827 1229.38 525.414C1231.71 555.731 1223.29 585.122 1210.17 612.997C1197.05 640.88 1177.62 670.608 1153.68 702.735C1122.11 745.115 1125.93 786.395 1140.12 808.938C1147.21 820.206 1156.98 827.501 1168.29 830.616C1179.45 833.692 1196.15 833.775 1218.65 823.277C1227.08 819.345 1229.78 816.139 1230.61 815.021C1231.45 813.878 1232.66 811.773 1233.54 806.555C1234.54 800.637 1234.78 793.01 1234.54 781.102C1234.34 770.613 1233.68 755.121 1234.31 740.197C1235.67 707.935 1243.11 668.431 1275.47 632.02C1306.36 597.262 1354.74 571.272 1424.53 552C1467.84 540.041 1506.83 548.275 1538.71 560.547C1567.64 571.682 1599.41 590.269 1618.68 599.941C1642.13 611.714 1656.05 615.739 1666.39 615.306C1673.26 615.018 1685.55 612.557 1704.45 590.623C1713.9 579.667 1719.66 570.654 1723.15 563.48L1812.94 615.322C1805.07 629.987 1794.94 644.273 1782.9 658.24C1750.11 696.284 1712.79 717.021 1670.72 718.784C1632.12 720.401 1597.77 705.331 1572.21 692.502C1542.47 677.572 1524.49 666.048 1501.51 657.202C1481.48 649.493 1466.42 647.876 1452.09 651.83C1391.73 668.499 1365.05 687.135 1352.89 700.821C1342.19 712.853 1338.58 725.61 1337.78 744.556C1337.33 755.235 1337.82 765.084 1338.09 779.063C1338.34 791.623 1338.4 807.594 1335.67 823.791C1332.81 840.689 1326.74 859.221 1313.86 876.623C1300.97 894.051 1283.5 907.304 1262.44 917.131C1221.06 936.442 1179.05 941.014 1140.76 930.46C1102.62 919.945 1072.21 895.49 1052.45 864.089C1012.95 801.295 1016.46 713.562 1070.63 640.858C1092.88 611.001 1107.63 587.658 1116.46 568.899C1125.29 550.133 1126.58 539.308 1126.12 533.345C1125.51 525.372 1120.09 508.853 1067.89 479.244C1063.92 476.993 1061.47 476.184 1060.3 475.9C1059.99 476.071 1059.57 476.319 1059.03 476.685C1055.92 478.792 1051.59 482.706 1044.87 490.15C1041.18 494.251 1028.42 509.193 1021.95 516.164C1005.28 534.109 975.354 562.796 929.762 562.7C886.121 562.608 845.543 536.181 805.302 495.503C785.52 475.507 773.48 451.778 770.172 425.453C766.994 400.163 772.372 376.528 780.153 356.443C794.969 318.2 823.943 280.231 846.26 250.428C871.441 216.8 889.71 191.632 897.725 170.356C901.337 160.764 901.241 155.842 900.934 153.904C900.79 152.995 900.396 150.2 894.91 145.113C875.844 127.433 860.052 117.395 844.614 111.527C829.276 105.697 811.123 102.781 785.697 103.752C780.448 103.953 776.999 104.481 774.892 104.94C774.343 107.043 773.649 110.432 772.969 115.719C771.643 126.03 771.23 134.666 769.657 150.634C766.844 179.184 761.324 216.955 740.379 256.381C719.167 296.31 684.292 334.053 628.76 367.362C576.761 398.551 526.487 387.391 487.936 368.987C469.302 360.091 451.7 348.798 436.369 338.563C419.999 327.634 406.877 318.392 392.942 309.896C364.313 292.44 348.713 288.983 337.71 291.26C327.73 293.326 305.019 303.907 273.357 359.724C269.976 365.685 270.903 367.374 271.151 368.225C272.071 371.377 275.586 378.345 286.729 389.272C310.301 412.385 346.713 433.999 390.533 462.733C410.929 476.107 432.413 490.83 451.188 506.753C469.649 522.41 488.52 541.707 500.865 565.209C514.016 590.247 519.545 619.889 510.295 651.626C501.577 681.536 481.392 707.53 454.974 730.691C415.283 765.488 374.277 786.186 331.305 784.082C287.847 781.955 256.629 757.199 235.468 734.416C215.118 712.507 196.653 683.826 183.586 665.345C167.781 642.994 158.36 633.1 151.973 629.477C120.57 611.664 90.342 614.434 54.2217 634.889C15.5607 656.783 -23.3244 695.924 -61.8682 740.377L-140.119 672.528Z" fill="#F05401"/>
</svg>
