<svg width="37" height="35" viewBox="0 0 37 35" fill="none" xmlns="http://www.w3.org/2000/svg">
<path d="M16.2961 1.38193C16.8948 -0.46069 19.5017 -0.460687 20.1004 1.38193L23.0253 10.384C23.293 11.208 24.061 11.7659 24.9274 11.7659H34.3927C36.3302 11.7659 37.1357 14.2452 35.5683 15.384L27.9107 20.9475C27.2097 21.4568 26.9164 22.3596 27.1841 23.1836L30.1091 32.1856C30.7078 34.0283 28.5988 35.5605 27.0314 34.4217L19.3738 28.8581C18.6728 28.3489 17.7236 28.3489 17.0227 28.8581L9.36508 34.4217C7.79766 35.5605 5.6887 34.0283 6.2874 32.1856L9.21234 23.1836C9.48009 22.3596 9.18677 21.4568 8.4858 20.9475L0.828208 15.384C-0.739219 14.2452 0.0663342 11.7659 2.00378 11.7659H11.4691C12.3355 11.7659 13.1034 11.208 13.3712 10.384L16.2961 1.38193Z" fill="#0491DD"/>
</svg>
