<svg width="43" height="39" viewBox="0 0 43 39" fill="none" xmlns="http://www.w3.org/2000/svg">
<path d="M15.9988 3C16.2406 3.00001 16.48 3.0172 16.7149 3.05351C16.8923 3.08096 17.0664 3.1197 17.2364 3.1693L17.4057 3.22282L17.4164 3.22671L25.9827 6.27122L33.3785 3.36974C33.8046 3.19688 34.2607 3.129 34.7261 3.20433C35.1197 3.2681 35.4901 3.4057 35.8275 3.61883C36.2026 3.85594 36.4948 4.1802 36.6993 4.56945C36.9103 4.97128 37.0022 5.40841 37 5.85575V29.5668C36.9998 30.1351 36.834 30.6683 36.494 31.1294C36.1621 31.5794 35.7161 31.9 35.198 32.1014L35.161 32.1151L27.4091 34.7772L27.4043 34.7791C27.1821 34.8542 26.9532 34.9098 26.7193 34.9465C26.4848 34.9832 26.2446 35 26.0012 35C25.7581 35 25.5188 34.9833 25.2851 34.9465C25.0529 34.9099 24.8249 34.8541 24.603 34.7801L24.5933 34.7772L24.5845 34.7743L16.0153 31.7288L8.6108 34.6361L8.60982 34.6351C8.18814 34.8041 7.73769 34.871 7.27779 34.7986C6.87975 34.7358 6.50605 34.5952 6.16662 34.3773C5.79764 34.1403 5.50738 33.8202 5.30358 33.4344C5.09105 33.0319 5.00003 32.5922 5 32.1442V8.4342C5 7.8643 5.16773 7.33002 5.50985 6.86864C5.84142 6.42158 6.28431 6.10235 6.80005 5.90051L6.81951 5.89273L6.83994 5.88592L14.5918 3.22282L14.5967 3.22184C14.8194 3.1466 15.0487 3.09104 15.2836 3.05449C15.518 3.01804 15.757 3.00001 15.9988 3ZM28.6653 10.9757V28.6843L31.6738 27.6675V9.80516L28.6653 10.9757ZM18.6619 27.0019L23.3381 28.6629V10.9971L18.6619 9.33714V27.0019ZM10.3272 10.3316V28.1939L13.3357 27.0243V9.31477L10.3272 10.3316Z" fill="#0491DD"/>
</svg>
