<svg width="43" height="39" viewBox="0 0 43 39" fill="none" xmlns="http://www.w3.org/2000/svg">
<path d="M38.8813 5.88072L28.1114 34.2241C28.0049 34.5048 27.832 34.7544 27.608 34.9507C27.3841 35.147 27.1161 35.284 26.8277 35.3495C26.5393 35.415 26.2396 35.4069 25.955 35.3261C25.6704 35.2452 25.4098 35.0941 25.1964 34.886L19.1257 28.9705L15.403 32.7612C15.2773 32.8888 15.1174 32.9756 14.9434 33.0106C14.7694 33.0457 14.5891 33.0274 14.4253 32.9581C14.2615 32.8889 14.1215 32.7717 14.023 32.6215C13.9245 32.4712 13.8719 32.2946 13.8718 32.1139V23.8504L4.55412 14.7714C4.32293 14.5461 4.15506 14.2619 4.0679 13.9483C3.98073 13.6347 3.97743 13.303 4.05834 12.9877C4.13926 12.6723 4.30144 12.3847 4.52809 12.1547C4.75475 11.9246 5.03765 11.7605 5.3475 11.6792L36.7596 3.45051C37.0789 3.36717 37.4147 3.37503 37.7299 3.47324C38.0452 3.57145 38.3278 3.75621 38.5468 4.00725C38.7658 4.25829 38.9126 4.56592 38.9713 4.8964C39.03 5.22688 38.9982 5.56744 38.8795 5.88072H38.8813ZM34.5141 7.96533L14.8268 21.0417L17.9411 24.0772L34.5141 7.96533Z" fill="#0491DD"/>
</svg>
