<svg width="158" height="158" viewBox="0 0 158 158" fill="none" xmlns="http://www.w3.org/2000/svg">
<path d="M127.058 111.258C130.876 104.609 133.312 96.5773 130.415 87.229C126.926 75.9057 116.985 67.1498 105.135 66.0307C100.741 65.5616 96.2972 66.0821 92.1302 67.5539C87.9632 69.0257 84.1784 71.4116 81.0535 74.5365C77.9286 77.6614 75.5427 81.4462 74.0709 85.6132C72.5991 89.7802 72.0786 94.2238 72.5477 98.6182C73.7327 110.402 82.4227 120.409 93.746 123.898C103.16 126.795 111.126 124.359 117.775 120.541L134.234 136.999C136.801 139.567 140.883 139.567 143.45 136.999C144.06 136.396 144.544 135.679 144.875 134.888C145.205 134.097 145.375 133.248 145.375 132.391C145.375 131.533 145.205 130.685 144.875 129.894C144.544 129.102 144.06 128.385 143.45 127.782L127.058 111.258ZM102.041 111.917C92.8243 111.917 85.5827 104.675 85.5827 95.4582C85.5827 86.2415 92.8243 78.9998 102.041 78.9998C111.258 78.9998 118.499 86.2415 118.499 95.4582C118.499 104.675 111.258 111.917 102.041 111.917ZM78.9994 131.667V144.833C42.6593 144.833 13.166 115.34 13.166 78.9998C13.166 42.6598 42.6593 13.1665 78.9994 13.1665C110.863 13.1665 137.394 35.8132 143.516 65.8332H129.889C127.835 57.8794 123.95 50.5163 118.543 44.3321C113.136 38.1479 106.358 33.3143 98.7494 30.2173V32.9165C98.7494 40.1582 92.8243 46.0832 85.5827 46.0832H72.416V59.2498C72.416 62.8707 69.4535 65.8332 65.8327 65.8332H52.666V78.9998H65.8327V98.7498H59.2494L27.7152 67.2157C26.8593 71.034 26.3327 74.9182 26.3327 78.9998C26.3327 108.032 49.9669 131.667 78.9994 131.667Z" fill="#191919"/>
</svg>
