<svg width="23" height="23" viewBox="0 0 23 23" fill="none" xmlns="http://www.w3.org/2000/svg">
<path d="M11.5544 14.4574L13.0327 15.9357L17.4695 11.4998L13.0337 7.06397L11.5554 8.54328L13.4655 10.4544L5.58592 10.4544L5.58592 12.5453L13.4655 12.5453L11.5544 14.4574Z" fill="white"/>
<path fill-rule="evenodd" clip-rule="evenodd" d="M19.6316 19.6315C24.1228 15.1402 24.1228 7.85969 19.6316 3.36844C15.1403 -1.12281 7.8598 -1.12281 3.36855 3.36844C-1.1227 7.85969 -1.12271 15.1402 3.36855 19.6315C7.8598 24.1227 15.1403 24.1227 19.6316 19.6315ZM18.1533 18.1532C19.9178 16.3886 20.9092 13.9954 20.9092 11.4999C20.9092 9.0045 19.9178 6.61125 18.1533 4.8467C16.3887 3.08216 13.9955 2.09084 11.5001 2.09084C9.00461 2.09084 6.61136 3.08215 4.84681 4.8467C3.08226 6.61125 2.09095 9.0045 2.09095 11.4999C2.09095 13.9954 3.08226 16.3886 4.84681 18.1532C6.61136 19.9177 9.0046 20.909 11.5001 20.909C13.9955 20.909 16.3887 19.9177 18.1533 18.1532Z" fill="white"/>
</svg>
