<svg width="34" height="33" viewBox="0 0 34 33" fill="none" xmlns="http://www.w3.org/2000/svg">
<path d="M14.1118 2.0729C15.0098 -0.691033 18.92 -0.691031 19.8181 2.0729L21.7661 8.06832C22.1678 9.30438 23.3196 10.1413 24.6193 10.1413H30.9233C33.8294 10.1413 35.0378 13.8601 32.6866 15.5683L27.5866 19.2737C26.5351 20.0376 26.0952 21.3917 26.4968 22.6278L28.4448 28.6232C29.3429 31.3871 26.1794 33.6855 23.8283 31.9773L18.7283 28.2719C17.6768 27.508 16.253 27.508 15.2016 28.2719L10.1016 31.9773C7.75043 33.6855 4.58699 31.3871 5.48504 28.6232L7.43307 22.6278C7.8347 21.3917 7.39472 20.0376 6.34326 19.2737L1.24325 15.5683C-1.10789 13.8601 0.100438 10.1413 3.00661 10.1413H9.31056C10.6102 10.1413 11.7621 9.30439 12.1637 8.06832L14.1118 2.0729Z" fill="#F6F3EA"/>
</svg>
