<svg width="156" height="156" viewBox="0 0 156 156" fill="none" xmlns="http://www.w3.org/2000/svg">
<g clip-path="url(#clip0_394_9783)">
<path d="M27.0828 49.8334L51.9995 57.0267L79.3861 37.1367L40.0828 38.2634C39.6973 38.2804 39.3233 38.4001 38.9995 38.6101L26.5628 45.7601C26.1759 45.9744 25.8623 46.2999 25.6624 46.6944C25.4625 47.0889 25.3856 47.5343 25.4416 47.973C25.4976 48.4117 25.684 48.8236 25.9766 49.1552C26.2691 49.4869 26.6545 49.7231 27.0828 49.8334Z" fill="#191919"/>
<path d="M149.586 27.5601L122.286 21.6668C119.99 21.1684 117.614 21.1697 115.318 21.6706C113.023 22.1716 110.862 23.1605 108.983 24.5701L26.5193 84.5001L6.71595 83.6335C5.58164 83.5949 4.46386 83.9136 3.52047 84.5446C2.57707 85.1756 1.85571 86.087 1.45824 87.1501C1.06078 88.2132 1.00729 89.3743 1.30533 90.4694C1.60338 91.5646 2.23789 92.5384 3.11928 93.2535L22.4026 108.55C22.7201 108.806 23.0979 108.977 23.5001 109.045C23.9022 109.113 24.3151 109.077 24.6993 108.94C30.2026 106.817 50.6993 95.9401 74.9226 82.6368L79.7759 132.513C79.8171 132.945 79.9755 133.358 80.2339 133.707C80.4923 134.055 80.841 134.327 81.2423 134.492C81.6436 134.657 82.0824 134.709 82.5113 134.643C82.9401 134.577 83.3428 134.395 83.6759 134.117L94.5093 125.103C95.1023 124.606 95.5012 123.916 95.6359 123.153L105.906 65.5635C123.239 55.9435 139.793 46.6268 151.449 40.0401C152.659 39.3819 153.637 38.3677 154.251 37.135C154.865 35.9023 155.085 34.5106 154.882 33.1485C154.679 31.7864 154.061 30.5198 153.114 29.5202C152.167 28.5206 150.935 27.8363 149.586 27.5601Z" fill="#191919"/>
</g>
<defs>
<clipPath id="clip0_394_9783">
<rect width="156" height="156" fill="white"/>
</clipPath>
</defs>
</svg>
